<?xml version="1.0" encoding="utf-8"?>
<!-- Uploaded to: SVG Repo, www.svgrepo.com, Generator: SVG Repo Mixer Tools -->
<svg width="800px" height="800px" viewBox="0 0 1024 1024" class="icon"  version="1.1" xmlns="http://www.w3.org/2000/svg"><path d="M94.017246 631.124962h833.621834v89.316589H94.017246z" fill="#ACF0F2" /><path d="M912.753836 839.530677c0 41.111044-33.319276 74.43032-74.43032 74.430319H183.334858c-41.111044 0-74.43032-33.319276-74.430319-74.430319v-74.43032h803.85032v74.43032z" fill="#FFB957" /><path d="M153.562321 497.149567h714.533732c24.656183 0 44.658806 20.003648 44.658806 44.658806 0 24.656183-20.002624 44.658806-44.658806 44.658807H153.562321c-24.655159 0-44.658806-20.002624-44.658806-44.658807 0-24.654135 20.003648-44.658806 44.658806-44.658806z" fill="#FFFFFF" /><path d="M108.903515 378.061465h803.850321c0-90.435695 0-267.949766-401.925161-267.949766S108.903515 287.624746 108.903515 378.061465z" fill="#FFB957" /><path d="M868.094005 601.345257H153.561297c-32.831907 0-59.544051-26.704977-59.544051-59.544051s26.712144-59.544051 59.544051-59.544051H868.094005c32.839074 0 59.544051 26.704977 59.544052 59.544051s-26.703953 59.544051-59.544052 59.544051z m-714.532708-89.316588c-16.420049 0-29.772537 13.359656-29.772537 29.772537s13.352489 29.772537 29.772537 29.772538H868.094005c16.412882 0 29.772537-13.359656 29.772538-29.772538s-13.359656-29.772537-29.772538-29.772537H153.561297zM94.016222 422.71208h833.621835v29.772538H94.016222zM912.752812 392.940567H108.902491c-8.220775 0-14.886269-6.658326-14.886269-14.886269 0-91.802582 0-282.828867 416.811429-282.828867s416.811429 191.026285 416.811429 282.828867c0 8.227942-6.658326 14.886269-14.886268 14.886269z m-788.905691-29.772538h773.96106c-1.060745-90.777673-20.759275-238.170061-386.98053-238.170061-366.228422 0-385.919785 147.392388-386.98053 238.170061z" fill="#4D5152" /><path d="M153.561297 720.434383c-24.087926 0-35.071144-21.965412-43.088166-38.00048-6.309181-12.618363-11.17878-21.544595-16.455885-21.544595v-29.772537c24.087926 0 35.071144 21.965412 43.088166 38.00048 6.309181 12.618363 11.17878 21.544595 16.455885 21.544595v29.772537zM153.561297 720.434383v-29.772537c5.277105 0 10.146704-8.926232 16.455885-21.544595 8.017022-16.035068 19.00024-38.00048 43.088166-38.00048v29.772537c-5.277105 0-10.146704 8.926232-16.455885 21.544595-8.017022 16.035068-19.00024 38.00048-43.088166 38.00048zM272.650423 720.434383c-24.087926 0-35.071144-21.965412-43.088166-38.00048-6.309181-12.618363-11.17878-21.544595-16.455885-21.544595v-29.772537c24.087926 0 35.071144 21.965412 43.088166 38.00048 6.309181 12.618363 11.17878 21.544595 16.455885 21.544595v29.772537zM272.650423 720.434383v-29.772537c5.277105 0 10.146704-8.926232 16.455885-21.544595 8.017022-16.035068 19.00024-38.00048 43.088166-38.00048v29.772537c-5.277105 0-10.146704 8.926232-16.455885 21.544595-8.018046 16.035068-19.00024 38.00048-43.088166 38.00048zM391.738525 720.434383c-24.087926 0-35.071144-21.965412-43.088166-38.00048-6.309181-12.618363-11.17878-21.544595-16.455885-21.544595v-29.772537c24.087926 0 35.071144 21.965412 43.088166 38.00048 6.309181 12.618363 11.17878 21.544595 16.455885 21.544595v29.772537zM391.738525 720.434383v-29.772537c5.277105 0 10.146704-8.926232 16.455885-21.544595 8.017022-16.035068 19.00024-38.00048 43.088166-38.00048v29.772537c-5.277105 0-10.146704 8.926232-16.455885 21.544595-8.017022 16.035068-18.999216 38.00048-43.088166 38.00048zM510.827651 720.434383c-24.087926 0-35.071144-21.965412-43.088166-38.00048-6.309181-12.618363-11.17878-21.544595-16.455885-21.544595v-29.772537c24.087926 0 35.071144 21.965412 43.088166 38.00048 6.309181 12.618363 11.17878 21.544595 16.455885 21.544595v29.772537zM510.827651 720.434383v-29.772537c5.277105 0 10.146704-8.926232 16.455885-21.544595 8.017022-16.035068 19.00024-38.00048 43.088166-38.00048v29.772537c-5.277105 0-10.146704 8.926232-16.455885 21.544595-8.017022 16.035068-19.00024 38.00048-43.088166 38.00048zM629.916777 720.434383c-24.087926 0-35.071144-21.965412-43.088166-38.00048-6.309181-12.618363-11.17878-21.544595-16.455885-21.544595v-29.772537c24.087926 0 35.071144 21.965412 43.088166 38.00048 6.309181 12.618363 11.17878 21.544595 16.455885 21.544595v29.772537zM629.916777 720.434383v-29.772537c5.277105 0 10.146704-8.926232 16.455885-21.544595 8.017022-16.035068 19.00024-38.00048 43.088166-38.00048v29.772537c-5.277105 0-10.146704 8.926232-16.455885 21.544595-8.017022 16.035068-19.00024 38.00048-43.088166 38.00048zM749.005903 720.434383c-24.087926 0-35.071144-21.965412-43.088166-38.00048-6.309181-12.618363-11.17878-21.544595-16.455885-21.544595v-29.772537c24.087926 0 35.071144 21.965412 43.088166 38.00048 6.309181 12.618363 11.17878 21.544595 16.455885 21.544595v29.772537zM749.005903 720.434383v-29.772537c5.277105 0 10.146704-8.926232 16.455885-21.544595 8.017022-16.035068 19.00024-38.00048 43.088166-38.00048v29.772537c-5.277105 0-10.146704 8.926232-16.455885 21.544595-8.025213 16.035068-19.00024 38.00048-43.088166 38.00048zM868.094005 720.434383c-24.087926 0-35.063977-21.965412-43.088166-38.00048-6.309181-12.618363-11.17878-21.544595-16.455885-21.544595v-29.772537c24.087926 0 35.063977 21.965412 43.088167 38.00048 6.309181 12.618363 11.17878 21.544595 16.455884 21.544595v29.772537zM868.094005 720.434383v-29.772537c5.277105 0 10.146704-8.926232 16.455885-21.544595 8.024189-16.035068 19.00024-38.00048 43.088167-38.00048v29.772537c-5.277105 0-10.146704 8.926232-16.455885 21.544595-8.024189 16.035068-18.999216 38.00048-43.088167 38.00048z" fill="#4D5152" /><path d="M838.322492 928.840098h-654.989681c-49.251956 0-89.316589-40.064633-89.316589-89.316589v-74.430319c0-8.227942 6.665493-14.886269 14.886269-14.886269h803.850321c8.227942 0 14.886269 6.658326 14.886268 14.886269v74.430319c0 49.251956-40.064633 89.316589-89.316588 89.316589zM123.78876 779.979458v59.544051c0 32.839074 26.712144 59.544051 59.544051 59.544051h654.988657c32.839074 0 59.544051-26.704977 59.544051-59.544051v-59.544051H123.78876z" fill="#4D5152" /><path d="M213.106372 422.719247l178.633177 178.633178 416.811429-178.633178z" fill="#F28C13" /></svg>